<svg enable-background="new 0 0 24 24" height="512" viewBox="0 0 24 24" width="512" xmlns="http://www.w3.org/2000/svg"><path d="m21.25 0h-18.5c-1.517 0-2.75 1.233-2.75 2.75v18.5c0 1.517 1.233 2.75 2.75 2.75h18.5c1.517 0 2.75-1.233 2.75-2.75v-18.5c0-1.517-1.233-2.75-2.75-2.75zm-3.25 18.25c0 .965-.785 1.75-1.75 1.75h-8.5c-.965 0-1.75-.785-1.75-1.75v-9.737l-1.835-2.294c-.18-.226-.215-.534-.09-.794.124-.26.387-.425.675-.425h11.5c.965 0 1.75.785 1.75 1.75z"/><path d="m14.25 10h-4.5c-.552 0-1-.447-1-1s.448-1 1-1h4.5c.552 0 1 .447 1 1s-.448 1-1 1z"/><path d="m14.25 13.5h-4.5c-.552 0-1-.447-1-1s.448-1 1-1h4.5c.552 0 1 .447 1 1s-.448 1-1 1z"/><path d="m14.25 17h-4.5c-.552 0-1-.447-1-1s.448-1 1-1h4.5c.552 0 1 .447 1 1s-.448 1-1 1z"/></svg>